<svg xmlns="http://www.w3.org/2000/svg" viewBox="0 0 460 340" role="img" aria-labelledby="title desc">
  <title id="title">InstantViR concept thumbnail</title>
  <desc id="desc">A degraded video stream is distilled through a diffusion prior into a clean real-time reconstruction.</desc>
  <defs>
    <linearGradient id="bg" x1="0" y1="0" x2="1" y2="1">
      <stop offset="0%" stop-color="#eef4ff"/>
      <stop offset="100%" stop-color="#fff2db"/>
    </linearGradient>
    <linearGradient id="blue" x1="0" y1="0" x2="1" y2="1">
      <stop offset="0%" stop-color="#5c7cff"/>
      <stop offset="100%" stop-color="#2037d6"/>
    </linearGradient>
    <filter id="shadow" x="-20%" y="-20%" width="140%" height="140%">
      <feDropShadow dx="0" dy="14" stdDeviation="14" flood-color="#223055" flood-opacity="0.18"/>
    </filter>
  </defs>
  <rect width="460" height="340" rx="28" fill="url(#bg)"/>
  <g filter="url(#shadow)">
    <rect x="44" y="70" width="118" height="84" rx="16" fill="#ffffff"/>
    <rect x="63" y="92" width="80" height="12" rx="6" fill="#cad4e8"/>
    <rect x="63" y="115" width="54" height="12" rx="6" fill="#cad4e8"/>
    <path d="M56 142L82 116l23 19 21-30 25 37z" fill="#9aa8c4"/>
  </g>
  <g filter="url(#shadow)">
    <rect x="44" y="185" width="118" height="84" rx="16" fill="#ffffff"/>
    <path d="M58 226h90" stroke="#cad4e8" stroke-width="10" stroke-linecap="round" stroke-dasharray="12 10"/>
    <path d="M58 248h68" stroke="#cad4e8" stroke-width="10" stroke-linecap="round" stroke-dasharray="12 10"/>
    <circle cx="121" cy="210" r="18" fill="#9aa8c4"/>
  </g>
  <path d="M181 125h62" stroke="#6f7b93" stroke-width="6" stroke-linecap="round"/>
  <path d="M233 108l24 17-24 17" fill="none" stroke="#6f7b93" stroke-width="6" stroke-linecap="round" stroke-linejoin="round"/>
  <path d="M181 229h62" stroke="#6f7b93" stroke-width="6" stroke-linecap="round"/>
  <path d="M233 212l24 17-24 17" fill="none" stroke="#6f7b93" stroke-width="6" stroke-linecap="round" stroke-linejoin="round"/>
  <g filter="url(#shadow)">
    <rect x="276" y="78" width="140" height="184" rx="28" fill="url(#blue)"/>
    <circle cx="346" cy="130" r="35" fill="#ffffff" opacity="0.92"/>
    <path d="M311 193c23-28 51-28 70 0" fill="none" stroke="#ffffff" stroke-width="12" stroke-linecap="round"/>
    <path d="M315 226h62" stroke="#cfd8ff" stroke-width="10" stroke-linecap="round"/>
  </g>
  <text x="44" y="306" fill="#162033" font-family="Inter, Arial, sans-serif" font-size="24" font-weight="800">InstantViR</text>
  <text x="44" y="326" fill="#5d687a" font-family="Inter, Arial, sans-serif" font-size="13">one-step video inverse solver</text>
  <text x="319" y="306" fill="#355cff" font-family="Inter, Arial, sans-serif" font-size="24" font-weight="800">35+ FPS</text>
</svg>
